{"title":"Furious Seven 2015 720p HDRIP x264 AC3 TiTAN","uid":11905769,"size":3159889473,"categoryP":"video","categoryS":"hd___movies","magnet":"?xt=urn:btih:ed2d8845874376718b7bf268797b455902069aef&amp;dn=Furious+Seven+2015+720p+HDRIP+x264+AC3+TiTAN&amp;tr=udp%3A%2F%2Ftracker.openbittorrent.com%3A80&amp;tr=udp%3A%2F%2Fopen.demonii.com%3A1337&amp;tr=udp%3A%2F%2Ftracker.coppersurfer.tk%3A6969&amp;tr=udp%3A%2F%2Fexodus.desync.com%3A6969","seeders":385,"leechers":164,"uploader":".BONE.","files":3,"time":1431390743,"description":" &lt;a href=&quot;http://www.imdb.com/title/tt2820852/&quot; rel=&quot;nofollow&quot; target=&quot;_NEW&quot;&gt;http://www.imdb.com/title/tt2820852/&lt;/a&gt;\n\nSource: 1080p WEB\n\nNO SUBS NICE CLEAN VID.. ENJOY\n\nGeneral\n\nFormat : Matroska\nFormat version : Version 2\nFile size : 2.94 GiB\nDuration : 2h 17mn\nOverall bit rate mode : Variable\nOverall bit rate : 3 070 Kbps\n\nVideo\nID : 1\nFormat : AVC\nFormat/Info : Advanced Video Codec\nFormat profile : &lt;a class=&quot;__cf_email__&quot; href=&quot;/cdn-cgi/l/email-protection&quot; data-cfemail=&quot;5911303e3119156d7768&quot;&gt;[email&amp;#160;protected]&lt;/a&gt;&lt;script cf-hash='f9e31' type=&quot;text/javascript&quot;&gt;\n/* &lt;![CDATA[ */!function(){try{var t=&quot;currentScript&quot;in document?document.currentScript:function(){for(var t=document.getElementsByTagName(&quot;script&quot;),e=t.length;e--;)if(t[e].getAttribute(&quot;cf-hash&quot;))return t[e]}();if(t&amp;&amp;t.previousSibling){var e,r,n,i,c=t.previousSibling,a=c.getAttribute(&quot;data-cfemail&quot;);if(a){for(e=&quot;&quot;,r=parseInt(a.substr(0,2),16),n=2;a.length-n;n+=2)i=parseInt(a.substr(n,2),16)^r,e+=String.fromCharCode(i);e=document.createTextNode(e),c.parentNode.replaceChild(e,c)}}}catch(u){}}();/* ]]&gt; */&lt;/script&gt;\nFormat settings, CABAC : Yes\nFormat settings, ReFrames : 3 frames\nCodec ID : V_MPEG4/ISO/AVC\nDuration : 2h 17mn\nBit rate mode : Variable\nBit rate : 2 753 Kbps\nMaximum bit rate : 40.0 Mbps\nWidth : 1 280 pixels\nHeight : 496 pixels\nDisplay aspect ratio : 2.581\nFrame rate mode : Constant\nFrame rate : 29.970 fps\nColor space : YUV\nChroma subsampling : 4:2:0\nBit depth : 8 bits\nScan type : Progressive\nBits/(Pixel*Frame) : 0.145\nStream size : 2.64 GiB (90%)\nDefault : Yes\nForced : No\nColor primaries : BT.709\nTransfer characteristics : BT.709\nMatrix coefficients : BT.709\n\nAudio\nID : 2\nFormat : AC-3\nFormat/Info : Audio Coding 3\nMode extension : CM (complete main)\nFormat settings, Endianness : Big\nCodec ID : A_AC3\nDuration : 2h 17mn\nBit rate mode : Constant\nBit rate : 256 Kbps\nChannel(s) : 2 channels\nChannel positions : Front: L R\nSampling rate : 44.1 KHz\nBit depth : 16 bits\nCompression mode : Lossy\nStream size : 251 MiB (8%)\nDefault : Yes\nForced : No","torrent":{"xt":"urn:btih:ed2d8845874376718b7bf268797b455902069aef","amp;dn":"Furious+Seven+2015+720p+HDRIP+x264+AC3+TiTAN","amp;tr":["udp%3A%2F%2Ftracker.openbittorrent.com%3A80","udp%3A%2F%2Fopen.demonii.com%3A1337","udp%3A%2F%2Ftracker.coppersurfer.tk%3A6969","udp%3A%2F%2Fexodus.desync.com%3A6969"],"infoHash":"ed2d8845874376718b7bf268797b455902069aef","infoHashBuffer":{"type":"Buffer","data":[237,45,136,69,135,67,118,113,139,123,242,104,121,123,69,89,2,6,154,239]},"announce":[],"urlList":[]}}